<?xml version="1.0" encoding="UTF-8"?>
<svg version="1.1" xmlns="http://www.w3.org/2000/svg" width="577" height="433">
<path d="M0 0 C3.58253058 2.76429829 6.79511963 5.81030863 10 9 C10.86753906 9.85335937 11.73507812 10.70671875 12.62890625 11.5859375 C14.76862801 13.70891653 16.8917067 15.84587424 19 18 C22.90278589 14.79104271 26.52204237 11.49388249 30.02197266 7.84448242 C37.06775606 0.53013777 43.69629523 -4.02365832 54.125 -4.3125 C71.55893856 -4.03466831 83.0899573 11.83362589 94.57885742 23.22875977 C96.07159314 24.70485333 97.56968525 26.17554913 99.07299805 27.64086914 C101.27593902 29.78871862 103.46166919 31.95286253 105.64453125 34.12109375 C106.64151787 35.08407631 106.64151787 35.08407631 107.65864563 36.06651306 C114.17384899 42.61128278 118.97806179 50.64542414 119.3125 60.0625 C119.09286586 71.22723548 113.66298631 78.40999452 106 86 C105.14664063 86.86625 104.29328125 87.7325 103.4140625 88.625 C101.29204617 90.7670985 99.15484109 92.89100659 97 95 C100.486011 99.21990806 104.08488701 103.04892896 108.0625 106.8125 C114.55943014 113.22136934 118.98317428 120.78938117 119.3125 130.0625 C118.96893565 147.52702095 103.14766822 159.10881711 91.77124023 170.57885742 C90.29514667 172.07159314 88.82445087 173.56968525 87.35913086 175.07299805 C85.21128138 177.27593902 83.04713747 179.46166919 80.87890625 181.64453125 C80.23691788 182.309189 79.5949295 182.97384674 78.93348694 183.65864563 C72.38871722 190.17384899 64.35457586 194.97806179 54.9375 195.3125 C43.77276452 195.09286586 36.59000548 189.66298631 29 182 C28.13375 181.14664063 27.2675 180.29328125 26.375 179.4140625 C24.2329015 177.29204617 22.10899341 175.15484109 20 173 C15.78009194 176.486011 11.95107104 180.08488701 8.1875 184.0625 C1.77863066 190.55943014 -5.78938117 194.98317428 -15.0625 195.3125 C-32.52702095 194.96893565 -44.10881711 179.14766822 -55.57885742 167.77124023 C-57.07159314 166.29514667 -58.56968525 164.82445087 -60.07299805 163.35913086 C-62.27593902 161.21128138 -64.46166919 159.04713747 -66.64453125 156.87890625 C-67.309189 156.23691788 -67.97384674 155.5949295 -68.65864563 154.93348694 C-75.17384899 148.38871722 -79.97806179 140.35457586 -80.3125 130.9375 C-80.09286586 119.77276452 -74.66298631 112.59000548 -67 105 C-66.14664063 104.13375 -65.29328125 103.2675 -64.4140625 102.375 C-62.29204617 100.2329015 -60.15484109 98.10899341 -58 96 C-61.486011 91.78009194 -65.08488701 87.95107104 -69.0625 84.1875 C-75.55943014 77.77863066 -79.98317428 70.21061883 -80.3125 60.9375 C-79.96831561 43.44146008 -64.1227692 31.88958107 -52.71630859 20.42114258 C-51.2342871 18.92753004 -49.75676196 17.42944305 -48.28369141 15.92700195 C-46.12603954 13.72652244 -43.95529017 11.5397446 -41.78125 9.35546875 C-40.81052551 8.35848213 -40.81052551 8.35848213 -39.82019043 7.34135437 C-28.7553251 -3.67220624 -14.28345215 -8.40734842 0 0 Z M-29.9296875 10.72265625 C-34.01271714 15.32339061 -35.19606384 18.93545471 -35.4375 25.125 C-35.52837891 26.73761719 -35.52837891 26.73761719 -35.62109375 28.3828125 C-33.66833027 39.75551048 -22.1482906 48.09261587 -14.25 55.75 C-11.60065604 58.31938771 -8.96155243 60.89868802 -6.328125 63.484375 C-5.7229303 64.06467468 -5.1177356 64.64497437 -4.49420166 65.24285889 C-0.81553211 68.85655714 1.67818688 71.85526478 2.22265625 77.17578125 C1.89030212 81.60987172 1.06821505 84.37463577 -1.96875 87.67578125 C-2.59966553 88.36470459 -3.23058105 89.05362793 -3.88061523 89.76342773 C-4.58001221 90.50149658 -5.27940918 91.23956543 -6 92 C-6.74515869 92.78898682 -7.49031738 93.57797363 -8.25805664 94.39086914 C-10.66947446 96.90956041 -13.11136509 99.3949829 -15.5625 101.875 C-16.7990332 103.15503906 -16.7990332 103.15503906 -18.06054688 104.4609375 C-18.86685547 105.275625 -19.67316406 106.0903125 -20.50390625 106.9296875 C-21.22392822 107.66429199 -21.9439502 108.39889648 -22.68579102 109.15576172 C-26.43051878 112.14000832 -29.75246628 113.04455478 -34.5 112.875 C-39.93719553 111.51570112 -43.52421913 108.44433469 -47.6875 104.85546875 C-48.31011719 104.31946045 -48.93273437 103.78345215 -49.57421875 103.23120117 C-50.27998047 102.62175659 -50.27998047 102.62175659 -51 102 C-53.61669111 104.52903353 -56.21593477 107.0753203 -58.8125 109.625 C-59.55048828 110.33785156 -60.28847656 111.05070312 -61.04882812 111.78515625 C-66.82937119 117.48723041 -70.41833452 121.94303955 -70.5 130.375 C-70.30188988 137.62252838 -68.50392835 141.62829536 -63.34375 146.59375 C-58.37345024 150.3846566 -53.44327145 150.58857337 -47.34375 150.6640625 C-39.61809935 149.12976272 -34.12341143 143.53073903 -28.83203125 138.01953125 C-28.18932785 137.36546799 -27.54662445 136.71140472 -26.88444519 136.03752136 C-24.85294909 133.96970746 -22.83157975 131.89243469 -20.8125 129.8125 C-18.14022472 127.06031332 -15.4580793 124.3183129 -12.76953125 121.58203125 C-12.16422073 120.95182571 -11.55891022 120.32162018 -10.93525696 119.6723175 C-7.25375217 115.92730122 -4.24591299 113.33216704 1.17578125 112.77734375 C5.60987172 113.10969788 8.37463577 113.93178495 11.67578125 116.96875 C12.36470459 117.59966553 13.05362793 118.23058105 13.76342773 118.88061523 C14.50149658 119.58001221 15.23956543 120.27940918 16 121 C16.78898682 121.74515869 17.57797363 122.49031738 18.39086914 123.25805664 C20.90956041 125.66947446 23.3949829 128.11136509 25.875 130.5625 C27.15503906 131.7990332 27.15503906 131.7990332 28.4609375 133.06054688 C29.275625 133.86685547 30.0903125 134.67316406 30.9296875 135.50390625 C31.66429199 136.22392822 32.39889648 136.9439502 33.15576172 137.68579102 C35.88599649 141.11177664 36.7588385 144.61332136 37.5 148.875 C36.74586434 153.58834785 34.02708677 156.42790628 31 160 C30.09694111 161.08273727 29.19462984 162.16609842 28.29296875 163.25 C27.53628906 164.1575 26.77960938 165.065 26 166 C28.52903353 168.61669111 31.0753203 171.21593477 33.625 173.8125 C34.33785156 174.55048828 35.05070312 175.28847656 35.78515625 176.04882812 C41.45085674 181.79249697 45.93836191 185.40912751 54.3125 185.5625 C61.01433715 185.39418902 65.192108 183.64210262 70 179 C74.39295029 173.74988868 74.48851628 169.10936635 74.62890625 162.37890625 C73.18604453 154.62688522 67.52948009 149.12220271 62.01953125 143.83203125 C61.36546799 143.18932785 60.71140472 142.54662445 60.03752136 141.88444519 C57.96970746 139.85294909 55.89243469 137.83157975 53.8125 135.8125 C51.06031332 133.14022472 48.3183129 130.4580793 45.58203125 127.76953125 C44.95182571 127.16422073 44.32162018 126.55891022 43.6723175 125.93525696 C39.92730122 122.25375217 37.33216704 119.24591299 36.77734375 113.82421875 C37.10951424 109.39257828 37.93123034 106.62509914 40.96484375 103.32421875 C41.59559814 102.63529541 42.22635254 101.94637207 42.8762207 101.23657227 C46.75080804 97.15620732 50.65852897 93.11626148 54.625 89.125 C55.87410156 87.84496094 55.87410156 87.84496094 57.1484375 86.5390625 C58.36273438 85.31703125 58.36273438 85.31703125 59.6015625 84.0703125 C60.32682129 83.33570801 61.05208008 82.60110352 61.79931641 81.84423828 C65.31659518 78.89665409 68.73308094 77.59425287 73.3125 77.9375 C78.1491588 78.59044894 80.76810609 80.85327016 84.17578125 84.2109375 C86.00859183 86.00842625 87.93531882 87.48028774 90 89 C92.61669111 86.47096647 95.21593477 83.9246797 97.8125 81.375 C98.55048828 80.66214844 99.28847656 79.94929688 100.04882812 79.21484375 C105.82937119 73.51276959 109.41833452 69.05696045 109.5 60.625 C109.3165502 52.96378674 106.82287057 49.15497299 101.875 43.625 C96.83224569 40.77474756 91.34838297 39.5807803 85.56640625 40.3046875 C76.93832366 42.7271301 71.07942947 49.84580899 64.99609375 56.046875 C64.46462234 56.58840714 63.93315094 57.12993927 63.38557434 57.68788147 C61.1742703 59.94516269 58.96481026 62.20393167 56.76977539 64.47705078 C55.1461063 66.15545566 53.5097915 67.82065716 51.87109375 69.484375 C51.3854747 69.99377625 50.89985565 70.50317749 50.39952087 71.02801514 C46.82787612 74.62624801 43.72060332 76.38032992 39 78 C29.01342563 77.82479694 22.87210187 70.2448717 16.2578125 63.62841797 C14.75020516 62.12520456 13.22728759 60.63874556 11.703125 59.15234375 C10.73339768 58.18848228 9.76461437 57.22366991 8.796875 56.2578125 C7.92385742 55.3930127 7.05083984 54.52821289 6.15136719 53.63720703 C2.86270126 49.60586689 2.02060288 46.27737827 1.9375 41.125 C2.63477563 36.63144596 5.11647615 34.0460118 8.2109375 30.859375 C9.99270195 29.00758487 11.47734065 27.06627498 13 25 C10.47096647 22.38330889 7.9246797 19.78406523 5.375 17.1875 C4.66214844 16.44951172 3.94929688 15.71152344 3.21484375 14.95117188 C-2.39821076 9.26087349 -7.41531019 5.5249459 -15.56640625 4.87890625 C-20.99609189 5.14908322 -25.87323639 7.10141143 -29.9296875 10.72265625 Z " fill="#0061D3" transform="translate(269,121)"/>
<path d="M0 0 C0.33 0.66 0.66 1.32 1 2 C-4.05352742 7.96348734 -9.41711741 13.53105379 -15 19 C-15 15.38229607 -14.36541462 14.91551207 -12 12.3125 C-11.36964844 11.61769531 -10.73929688 10.92289063 -10.08984375 10.20703125 C-6.79848676 6.73111219 -3.42451456 3.34446097 0 0 Z " fill="#0061D3" transform="translate(209,219)"/>
</svg>
 